<?xml version="1.0" encoding="UTF-8" standalone="no"?>
<svg
   xmlns:dc="http://purl.org/dc/elements/1.1/"
   xmlns:cc="http://creativecommons.org/ns#"
   xmlns:rdf="http://www.w3.org/1999/02/22-rdf-syntax-ns#"
   xmlns:svg="http://www.w3.org/2000/svg"
   xmlns="http://www.w3.org/2000/svg"
   width="706.56433mm"
   height="635.25mm"
   viewBox="0 0 706.56433 635.25"
   version="1.1"
   id="svg8">
  <defs
     id="defs2">
    <clipPath
       clipPathUnits="userSpaceOnUse"
       id="clipPath1098">
      <rect
         style="fill:#fedda0;fill-opacity:1;stroke:none;stroke-width:0.264999;stroke-linecap:round;stroke-linejoin:round;paint-order:markers fill stroke"
         id="rect1100"
         width="775.93994"
         height="479.55728"
         x="-345.61197"
         y="-224.069"
         transform="rotate(37.738831)" />
    </clipPath>
  </defs>
  <metadata
     id="metadata5">
    <rdf:RDF>
      <cc:Work
         rdf:about="">
        <dc:format>image/svg+xml</dc:format>
        <dc:type
           rdf:resource="http://purl.org/dc/dcmitype/StillImage" />
        <dc:title></dc:title>
      </cc:Work>
    </rdf:RDF>
  </metadata>
  <g
     id="layer2"
     style="display:inline;opacity:1;mix-blend-mode:normal"
     transform="translate(291.31432,245)">
    <g
       id="g1070">
      <path
         style="fill:#f0e0ce;fill-opacity:1;stroke:none;stroke-width:0.264583px;stroke-linecap:butt;stroke-linejoin:miter;stroke-opacity:1"
         d="m 414.99948,-85 2.3e-4,430 L 415,390 H 325 V 345 H -117.00029 V 19 l -68,-134 -97,-16 v -72 l 177.00016,33 -3.2e-4,55 H 65.99971 v -130 h 124 v 160 z"
         id="path1132" />
      <path
         style="fill:#8aca67;fill-opacity:1;stroke:none;stroke-width:0.264583px;stroke-linecap:butt;stroke-linejoin:miter;stroke-opacity:1"
         d="M 225,344.99999 V 320 h 85 V 292 H 160.00034 v 52.99999 z"
         id="path950" />
      <path
         style="fill:#b0b0b0;fill-opacity:1;stroke:none;stroke-width:0.264583px;stroke-linecap:butt;stroke-linejoin:miter;stroke-opacity:1"
         d="m 115,225 v 42 H 290.17452 V 225 C 290,225.0331 115,225 115,225 Z"
         id="path948" />
      <path
         style="fill:#b0b0b0;fill-opacity:1;stroke:none;stroke-width:0.264583px;stroke-linecap:butt;stroke-linejoin:miter;stroke-opacity:1"
         d="m 215,55 h 45 v -85 h 154.99951 l -3e-5,-29.999998 v -25 l -224.99977,2e-6 V -114.3 L -3.9999999,-115 20.999998,-55.999998 v 4.999997 h 59 v 20.000003 L 215,-30 Z"
         id="path946" />
      <path
         style="fill:#e8e8e8;fill-opacity:1;stroke:none;stroke-width:0.264583px;stroke-linecap:butt;stroke-linejoin:miter;stroke-opacity:1"
         d="M 415,-10 H 260 v 170 h 49.99998 L 310,267 H 160.00013 l 2.1e-4,25 H 310 v 28 h -10 v 70 h 25 v -98 h 90 v -20 z"
         id="path944" />
      <path
         style="fill:#e8e8e8;fill-opacity:1;stroke:none;stroke-width:0.264583px;stroke-linecap:butt;stroke-linejoin:miter;stroke-opacity:1"
         d="M -4.000002,-100 H -105 v 44.000002 H 20.999998 Z"
         id="path924" />
      <path
         style="fill:#e8e8e8;fill-opacity:1;stroke:none;stroke-width:0.264583px;stroke-linecap:butt;stroke-linejoin:miter;stroke-opacity:1"
         d="M 100,-10 H 215 V 39.999999 H 100 Z"
         id="path922" />
      <path
         style="fill:#e8e8e8;fill-opacity:1;stroke:none;stroke-width:0.264583px;stroke-linecap:butt;stroke-linejoin:miter;stroke-opacity:1"
         d="M -25,25 H 0 v 9.999998 H 79.999998 V -30.999998 H -25 Z"
         id="path920" />
      <path
         style="fill:#e8e8e8;fill-opacity:1;stroke:none;stroke-width:0.265;stroke-linecap:butt;stroke-linejoin:miter;stroke-miterlimit:4;stroke-dasharray:none;stroke-opacity:1"
         d="m -120,349.99998 h 65 v -79.99999 h 14.999998 V 102 H -120 Z"
         id="path918" />
      <path
         style="fill:#ffffff;fill-opacity:1;stroke:#000000;stroke-width:0.5;stroke-linecap:butt;stroke-linejoin:miter;stroke-miterlimit:4;stroke-dasharray:none;stroke-opacity:1"
         d="m -120,335 h 65 v -80 h 15 v -5 l -20,0.26458 2e-6,79.73542 H -115 v -75 h 35 v -5 h -35 v -79 h 49.99978 l 4.4e-4,-5 H -115 V 87 h 75 v -5 h -80 z"
         id="path1136" />
      <path
         style="fill:#ffffff;fill-opacity:1;stroke:#000000;stroke-width:0.5;stroke-linecap:butt;stroke-linejoin:miter;stroke-miterlimit:4;stroke-dasharray:none;stroke-opacity:1"
         d="m -40,107 h -5 v 122.89664 l 5,0.20672 z"
         id="path1138" />
      <path
         style="fill:#ffffff;fill-opacity:1;stroke:#000000;stroke-width:0.5;stroke-linecap:butt;stroke-linejoin:miter;stroke-miterlimit:4;stroke-dasharray:none;stroke-opacity:1"
         d="M -5,40 H 80 V -26 H 75 V 35 H 0 V 5 h -5 z"
         id="path1140" />
      <path
         style="fill:#ffffff;fill-opacity:1;stroke:#000000;stroke-width:0.5;stroke-linecap:butt;stroke-linejoin:miter;stroke-miterlimit:4;stroke-dasharray:none;stroke-opacity:1"
         d="M -25,10 V -46 H 80 v -5 H -30 v 61 z"
         id="path1142" />
      <path
         style="fill:#ffffff;fill-opacity:1;stroke:#000000;stroke-width:0.5;stroke-linecap:butt;stroke-linejoin:miter;stroke-miterlimit:4;stroke-dasharray:none;stroke-opacity:1"
         d="M 100,40 H 215 V 23 h -5 V 35 H 105 V -5 h -5 z"
         id="path1144" />
      <path
         style="fill:#ffffff;fill-opacity:1;stroke:#000000;stroke-width:0.5;stroke-linecap:butt;stroke-linejoin:miter;stroke-miterlimit:4;stroke-dasharray:none;stroke-opacity:1"
         d="M 100,-25 H 210 V 3 h 5 V -30 H 100 Z"
         id="path1146" />
      <path
         style="fill:#ffffff;fill-opacity:1;stroke:#000000;stroke-width:0.5;stroke-linecap:butt;stroke-linejoin:miter;stroke-miterlimit:4;stroke-dasharray:none;stroke-opacity:1"
         d="m 375,257 h 40 V -30 H 260 v 45 h 5 v -40 h 145 v 40 h -40 v 5 h 40 v 115 h -40 v 5 h 40 v 112 h -35 z"
         id="path940" />
      <path
         style="fill:#ffffff;fill-opacity:1;stroke:#000000;stroke-width:0.5;stroke-linecap:butt;stroke-linejoin:miter;stroke-miterlimit:4;stroke-dasharray:none;stroke-opacity:1"
         d="m 355,252 h -45 v -92 h -50 v 50 h -35 v 5 h 65 v 37 H 179.99998 l 4e-5,5 H 355 Z"
         id="path1148" />
      <path
         style="fill:#ffffff;fill-opacity:1;stroke:#000000;stroke-width:0.5;stroke-linecap:butt;stroke-linejoin:miter;stroke-miterlimit:4;stroke-dasharray:none;stroke-opacity:1"
         d="m 260,35 v 105 h 5 V 35 Z"
         id="path1150" />
      <path
         style="fill:#ffffff;fill-opacity:1;stroke:#000000;stroke-width:0.5;stroke-linecap:butt;stroke-linejoin:miter;stroke-miterlimit:4;stroke-dasharray:none;stroke-opacity:1"
         d="m 315,15 v 125 h 35 v -5 H 320 V 20 h 30 v -5 z"
         id="path1152" />
      <path
         style="fill:#ffffff;fill-opacity:1;stroke:#000000;stroke-width:0.5;stroke-linecap:butt;stroke-linejoin:miter;stroke-miterlimit:4;stroke-dasharray:none;stroke-opacity:1"
         d="m 170,210 v 5 h -50 v 17 h -5 v -22 z"
         id="path1154" />
      <path
         style="fill:#ffffff;fill-opacity:1;stroke:#000000;stroke-width:0.5;stroke-linecap:butt;stroke-linejoin:miter;stroke-miterlimit:4;stroke-dasharray:none;stroke-opacity:1"
         d="m 160,252 4.3e-4,48 h 32.99986 l -5.8e-4,30 H 55 v -35 h 60 v -43 z"
         id="path1156" />
      <path
         style="fill:#ffffff;fill-opacity:1;stroke:#000000;stroke-width:0.5;stroke-linecap:butt;stroke-linejoin:miter;stroke-miterlimit:4;stroke-dasharray:none;stroke-opacity:1"
         d="m -110,-71 h 75 v -5 h -70 v -39 H -4 l 20,39 h -31 v 5 h 36 v -5 l -23,-44 h -108 z"
         id="path854" />
      <path
         style="fill:#ffffff;fill-opacity:1;stroke:#000000;stroke-width:0.5;stroke-linecap:butt;stroke-linejoin:miter;stroke-miterlimit:4;stroke-dasharray:none;stroke-opacity:1"
         d="m -180,-148 -6,22 -105,-17 6,-22 z"
         id="path856" />
      <path
         style="fill:#ffffff;fill-opacity:1;stroke:#000000;stroke-width:0.5;stroke-linecap:butt;stroke-linejoin:miter;stroke-miterlimit:4;stroke-dasharray:none;stroke-opacity:1"
         d="m -287,-196 88,15 3,-13 79,13 4,-18 -166,-28.31273 z"
         id="path858" />
      <path
         id="rect872"
         style="fill:#ffffff;fill-opacity:1;stroke:#000000;stroke-width:0.5;stroke-linecap:round;stroke-linejoin:round;stroke-miterlimit:4;stroke-dasharray:none;paint-order:markers fill stroke"
         d="m 225,300 h 75 v 75 h -75 z" />
      <path
         style="fill:#5da3ff;fill-opacity:1;stroke:#000000;stroke-width:0.5;stroke-linecap:butt;stroke-linejoin:miter;stroke-miterlimit:4;stroke-dasharray:none;stroke-opacity:1"
         d="m 230,-30 h 20 v 4.368853 h -20 z"
         id="path860" />
      <path
         style="fill:#ffffff;fill-opacity:1;stroke:#000000;stroke-width:0.5;stroke-linecap:butt;stroke-linejoin:miter;stroke-miterlimit:4;stroke-dasharray:none;stroke-opacity:1"
         d="m -110,-71 v 15 h 75 l 2e-6,-15 z"
         id="path883" />
      <path
         style="fill:#ffffff;fill-opacity:1;stroke:#000000;stroke-width:0.5;stroke-linecap:butt;stroke-linejoin:miter;stroke-miterlimit:4;stroke-dasharray:none;stroke-opacity:1"
         d="m -15,-71 v 15 H 20.999998 L 21,-71 Z"
         id="path885" />
      <path
         style="fill:#ffffff;fill-opacity:1;stroke:#000000;stroke-width:0.5;stroke-linecap:butt;stroke-linejoin:miter;stroke-miterlimit:4;stroke-dasharray:none;stroke-opacity:1"
         d="m -105,-115 v 15 H -4.000002 L -4,-115 Z"
         id="path887" />
      <path
         style="fill:#ffffff;fill-opacity:1;stroke:#000000;stroke-width:0.5;stroke-linecap:butt;stroke-linejoin:miter;stroke-miterlimit:4;stroke-dasharray:none;stroke-opacity:1"
         d="m -25,-46 v 15 H 79.999998 L 80,-46 Z"
         id="path889" />
      <path
         style="fill:#ffffff;fill-opacity:1;stroke:#000000;stroke-width:0.5;stroke-linecap:butt;stroke-linejoin:miter;stroke-miterlimit:4;stroke-dasharray:none;stroke-opacity:1"
         d="M -5,40 V 55 H 79.999998 L 80,40 Z"
         id="path891" />
      <path
         style="fill:#ffffff;fill-opacity:1;stroke:#000000;stroke-width:0.5;stroke-linecap:butt;stroke-linejoin:miter;stroke-miterlimit:4;stroke-dasharray:none;stroke-opacity:1"
         d="M 100,40 V 55 H 215 V 40 Z"
         id="path893" />
      <path
         style="fill:#ffffff;fill-opacity:1;stroke:#000000;stroke-width:0.5;stroke-linecap:butt;stroke-linejoin:miter;stroke-miterlimit:4;stroke-dasharray:none;stroke-opacity:1"
         d="m 100,-25 v 15 h 110 v -15 z"
         id="path895" />
      <path
         style="fill:#ffffff;fill-opacity:1;stroke:#000000;stroke-width:0.5;stroke-linecap:butt;stroke-linejoin:miter;stroke-miterlimit:4;stroke-dasharray:none;stroke-opacity:1"
         d="m -30,10 v 15 h 5 V 10 Z"
         id="path897" />
      <path
         style="fill:#ffffff;fill-opacity:1;stroke:#000000;stroke-width:0.5;stroke-linecap:butt;stroke-linejoin:miter;stroke-miterlimit:4;stroke-dasharray:none;stroke-opacity:1"
         d="m 210,3 v 15 h 5 V 3 Z"
         id="path899" />
      <path
         style="fill:#89bdff;fill-opacity:1;stroke:#000000;stroke-width:0.5;stroke-linecap:butt;stroke-linejoin:miter;stroke-miterlimit:4;stroke-dasharray:none;stroke-opacity:1"
         d="m 230,-25.631147 v 15 h 20 v -15 z"
         id="path901" />
      <path
         style="fill:#ffffff;fill-opacity:1;stroke:#000000;stroke-width:0.5;stroke-linecap:butt;stroke-linejoin:miter;stroke-miterlimit:4;stroke-dasharray:none;stroke-opacity:1"
         d="m 260,15 v 15 h 5 V 15 Z"
         id="path903" />
      <path
         style="fill:#ffffff;fill-opacity:1;stroke:#000000;stroke-width:0.5;stroke-linecap:butt;stroke-linejoin:miter;stroke-miterlimit:4;stroke-dasharray:none;stroke-opacity:1"
         d="m 265,-25 v 15 h 145 v -15 z"
         id="path905" />
      <path
         style="fill:#ffffff;fill-opacity:1;stroke:#000000;stroke-width:0.5;stroke-linecap:butt;stroke-linejoin:miter;stroke-miterlimit:4;stroke-dasharray:none;stroke-opacity:1"
         d="m 315,140 v 15 h 35 v -15 z"
         id="path907" />
      <path
         style="fill:#ffffff;fill-opacity:1;stroke:#000000;stroke-width:0.5;stroke-linecap:butt;stroke-linejoin:miter;stroke-miterlimit:4;stroke-dasharray:none;stroke-opacity:1"
         d="m 370,20 v 15 h 40 V 20 Z"
         id="path909" />
      <path
         style="fill:#ffffff;fill-opacity:1;stroke:#000000;stroke-width:0.5;stroke-linecap:butt;stroke-linejoin:miter;stroke-miterlimit:4;stroke-dasharray:none;stroke-opacity:1"
         d="m 370,140 v 15 h 40 v -15 z"
         id="path911" />
      <path
         style="fill:#ffffff;fill-opacity:1;stroke:#000000;stroke-width:0.5;stroke-linecap:butt;stroke-linejoin:miter;stroke-miterlimit:4;stroke-dasharray:none;stroke-opacity:1"
         d="m 225,215 v 15 h 65 v -15 z"
         id="path913" />
      <path
         style="fill:#ffffff;fill-opacity:1;stroke:#000000;stroke-width:0.5;stroke-linecap:butt;stroke-linejoin:miter;stroke-miterlimit:4;stroke-dasharray:none;stroke-opacity:1"
         d="m 180.00002,257 v 15 H 355 v -15 z"
         id="path915" />
      <path
         style="fill:#ffffff;fill-opacity:1;stroke:#000000;stroke-width:0.5;stroke-linecap:butt;stroke-linejoin:miter;stroke-miterlimit:4;stroke-dasharray:none;stroke-opacity:1"
         d="m 120,215 v 15 h 50 v -15 z"
         id="path917" />
      <path
         style="fill:#ffffff;fill-opacity:1;stroke:#000000;stroke-width:0.5;stroke-linecap:butt;stroke-linejoin:miter;stroke-miterlimit:4;stroke-dasharray:none;stroke-opacity:1"
         d="m 260,140 v 15 h 5 v -15 z"
         id="path919" />
      <path
         style="fill:#ffffff;fill-opacity:1;stroke:#000000;stroke-width:0.5;stroke-linecap:butt;stroke-linejoin:miter;stroke-miterlimit:4;stroke-dasharray:none;stroke-opacity:1"
         d="m 115,232 v 15 h 5 v -15 z"
         id="path921" />
      <path
         style="fill:#ffffff;fill-opacity:1;stroke:#000000;stroke-width:0.5;stroke-linecap:butt;stroke-linejoin:miter;stroke-miterlimit:4;stroke-dasharray:none;stroke-opacity:1"
         d="m 320,20 v 15 h 30 V 20 Z"
         id="path923" />
      <path
         style="fill:#ffffff;fill-opacity:1;stroke:#000000;stroke-width:0.5;stroke-linecap:butt;stroke-linejoin:miter;stroke-miterlimit:4;stroke-dasharray:none;stroke-opacity:1"
         d="m 225,215 v 15 h 65 v -15 z"
         id="path925" />
      <path
         style="fill:#ffffff;fill-opacity:1;stroke:#000000;stroke-width:0.5;stroke-linecap:butt;stroke-linejoin:miter;stroke-miterlimit:4;stroke-dasharray:none;stroke-opacity:1"
         d="m -115,171 v 15 h 49.999778 l 2e-6,-15 z"
         id="path927" />
      <path
         style="fill:#ffffff;fill-opacity:1;stroke:#000000;stroke-width:0.5;stroke-linecap:butt;stroke-linejoin:miter;stroke-miterlimit:4;stroke-dasharray:none;stroke-opacity:1"
         d="m -115,87 v 15 h 74.999998 L -40,87 Z"
         id="path929" />
      <path
         style="fill:#ffffff;fill-opacity:1;stroke:#000000;stroke-width:0.5;stroke-linecap:butt;stroke-linejoin:miter;stroke-miterlimit:4;stroke-dasharray:none;stroke-opacity:1"
         d="m -45,229.89664 v 15 h 5 v -15 z"
         id="path933" />
      <path
         style="fill:#ffffff;fill-opacity:1;stroke:#000000;stroke-width:0.5;stroke-linecap:butt;stroke-linejoin:miter;stroke-miterlimit:4;stroke-dasharray:none;stroke-opacity:1"
         d="m 55,330 v 15 h 137.99971 v -15 z"
         id="path937" />
      <path
         style="fill:#ffffff;fill-opacity:1;stroke:#000000;stroke-width:0.5;stroke-linecap:butt;stroke-linejoin:miter;stroke-miterlimit:4;stroke-dasharray:none;stroke-opacity:1"
         d="m 225,375 v 15 h 75 v -15 z"
         id="path939" />
      <path
         style="fill:#ffffff;fill-opacity:1;stroke:#000000;stroke-width:0.5;stroke-linecap:butt;stroke-linejoin:miter;stroke-miterlimit:4;stroke-dasharray:none;stroke-opacity:1"
         d="M -3.9999999,-115 16,-75.999998 8.3076915,-76 -4.000002,-100 Z"
         id="path943" />
      <path
         style="fill:#ffffff;fill-opacity:1;stroke:#000000;stroke-width:0.5;stroke-linecap:butt;stroke-linejoin:miter;stroke-miterlimit:4;stroke-dasharray:none;stroke-opacity:1"
         d="m -291,-143 105,17 v 15 l -105,-17 z"
         id="path945" />
      <path
         style="fill:#ffffff;fill-opacity:1;stroke:#000000;stroke-width:0.5;stroke-linecap:butt;stroke-linejoin:miter;stroke-miterlimit:4;stroke-dasharray:none;stroke-opacity:1"
         d="m -287,-196 88,15 v 15 l -88,-15 z"
         id="path947" />
      <path
         style="fill:#ffffff;fill-opacity:1;stroke:#000000;stroke-width:0.5;stroke-linecap:butt;stroke-linejoin:miter;stroke-miterlimit:4;stroke-dasharray:none;stroke-opacity:1"
         d="m -196,-194 79,13 v 15 l -79,-13 z"
         id="path949" />
      <path
         style="fill:#ffffff;fill-opacity:1;stroke:#000000;stroke-width:0.5;stroke-linecap:butt;stroke-linejoin:miter;stroke-miterlimit:4;stroke-dasharray:none;stroke-opacity:1"
         d="m -199,-181 3,-13 v 15 l -3,13 z"
         id="path951" />
      <path
         style="fill:#ffffff;fill-opacity:1;stroke:#000000;stroke-width:0.5;stroke-linecap:butt;stroke-linejoin:miter;stroke-miterlimit:4;stroke-dasharray:none;stroke-opacity:1"
         d="m -117,-181 4,-18 v 15 l -4,18 z"
         id="path954" />
      <path
         style="fill:#8aca67;fill-opacity:1;stroke:none;stroke-width:0.264583px;stroke-linecap:butt;stroke-linejoin:miter;stroke-opacity:1"
         d="m -105.00013,-170 v 43 L -199,-166 l 3,-13 79,13 1.33092,-5.98913 z"
         id="path900" />
      <path
         style="fill:#ffffff;fill-opacity:1;stroke:#000000;stroke-width:0.5;stroke-linecap:butt;stroke-linejoin:miter;stroke-miterlimit:4;stroke-dasharray:none;stroke-opacity:1"
         d="m -186,-126 6,-22 v 15 l -6,22 z"
         id="path956" />
      <path
         style="fill:#8aca67;fill-opacity:1;stroke:none;stroke-width:0.265;stroke-linecap:butt;stroke-linejoin:miter;stroke-miterlimit:4;stroke-dasharray:none;stroke-opacity:1"
         d="m -15,80 h 218 l 12,81 -85,19 -52,48 h -93 z"
         id="path958" />
      <path
         style="fill:#8aca67;fill-opacity:1;stroke:none;stroke-width:0.264583px;stroke-linecap:butt;stroke-linejoin:miter;stroke-opacity:1"
         d="m -110,-46 h 60 l -30,36 z"
         id="path896" />
      <path
         style="fill:#8aca67;fill-opacity:1;stroke:none;stroke-width:0.265;stroke-linecap:butt;stroke-linejoin:miter;stroke-miterlimit:4;stroke-dasharray:none;stroke-opacity:1"
         d="m -117.00029,19 61.622044,53 H -117 Z"
         id="path898" />
      <path
         style="fill:#ffffff;fill-opacity:1;stroke:#000000;stroke-width:0.5;stroke-linecap:butt;stroke-linejoin:miter;stroke-miterlimit:4;stroke-dasharray:none;stroke-opacity:1"
         d="m -115,255 v 15 h 34.999998 L -80,255 Z"
         id="path910" />
      <path
         style="fill:#ffffff;fill-opacity:1;stroke:#000000;stroke-width:0.5;stroke-linecap:butt;stroke-linejoin:miter;stroke-miterlimit:4;stroke-dasharray:none;stroke-opacity:1"
         d="m -55,255 v 15 h 14.999998 L -40,255 Z"
         id="path912" />
      <path
         style="fill:#ffffff;fill-opacity:1;stroke:#000000;stroke-width:0.5;stroke-linecap:butt;stroke-linejoin:miter;stroke-miterlimit:4;stroke-dasharray:none;stroke-opacity:1"
         d="m -120,335 v 15 h 64.999998 L -55,335 Z"
         id="path914" />
      <path
         style="fill:#8aca67;fill-opacity:1;stroke:none;stroke-width:0.264583px;stroke-linecap:butt;stroke-linejoin:miter;stroke-opacity:1"
         d="M 189.99971,-84.999998 V -60 h 224.99977 v -24.999998 z"
         id="path916" />
      <path
         style="fill:#ffffff;fill-opacity:1;stroke:#000000;stroke-width:0.5;stroke-linecap:butt;stroke-linejoin:miter;stroke-miterlimit:4;stroke-dasharray:none;stroke-opacity:1"
         d="m 375,257 v 15 h 40 v -15 z"
         id="path942" />
      <path
         style="fill:#8aca67;fill-opacity:1;stroke:none;stroke-width:0.264583px;stroke-linecap:butt;stroke-linejoin:miter;stroke-opacity:1"
         d="m 325.00001,291.99998 v 98 h 89.99997 v -98 z"
         id="path952" />
      <rect
         style="fill:#ffffff;fill-opacity:1;stroke:#000000;stroke-width:0.499999;stroke-linecap:round;stroke-linejoin:round;stroke-miterlimit:4;stroke-dasharray:none;stroke-opacity:1;paint-order:markers fill stroke"
         id="rect928"
         width="7.7853584"
         height="30.801594"
         x="193.41832"
         y="132.01883"
         transform="rotate(-9.124544)" />
      <rect
         style="fill:#ffffff;fill-opacity:1;stroke:#000000;stroke-width:0.499999;stroke-linecap:round;stroke-linejoin:round;stroke-miterlimit:4;stroke-dasharray:none;stroke-opacity:1;paint-order:markers fill stroke"
         id="rect934"
         width="7.375247"
         height="29.464399"
         x="206.6545"
         y="-146.17516"
         transform="rotate(78.193194)" />
      <rect
         style="fill:#ffffff;fill-opacity:1;stroke:#000000;stroke-width:0.499999;stroke-linecap:round;stroke-linejoin:round;stroke-miterlimit:4;stroke-dasharray:none;stroke-opacity:1;paint-order:markers fill stroke"
         id="rect936"
         width="8.0002565"
         height="32.833355"
         x="252.15352"
         y="-82.980965"
         transform="rotate(98.143808)" />
      <rect
         style="fill:#ffffff;fill-opacity:1;stroke:#000000;stroke-width:0.499999;stroke-linecap:round;stroke-linejoin:round;stroke-miterlimit:4;stroke-dasharray:none;stroke-opacity:1;paint-order:markers fill stroke"
         id="rect938"
         width="8.1449347"
         height="28.995493"
         x="141.84439"
         y="-52.681061"
         transform="rotate(89.914475)" />
      <rect
         style="fill:#ffffff;fill-opacity:1;stroke:#000000;stroke-width:0.499999;stroke-linecap:round;stroke-linejoin:round;stroke-miterlimit:4;stroke-dasharray:none;stroke-opacity:1;paint-order:markers fill stroke"
         id="rect940"
         width="8.1425581"
         height="30.582993"
         x="84.483353"
         y="-103.0936"
         transform="rotate(89.914475)" />
      <rect
         style="fill:#ffffff;fill-opacity:1;stroke:#000000;stroke-width:0.499999;stroke-linecap:round;stroke-linejoin:round;stroke-miterlimit:4;stroke-dasharray:none;stroke-opacity:1;paint-order:markers fill stroke"
         id="rect942"
         width="7.2328043"
         height="26.518459"
         x="-64.16687"
         y="8.4897366"
         transform="rotate(37.752509)" />
    </g>
  </g>
</svg>
