<?xml version="1.0" encoding="UTF-8" standalone="no"?>
<svg
   xmlns:dc="http://purl.org/dc/elements/1.1/"
   xmlns:cc="http://creativecommons.org/ns#"
   xmlns:rdf="http://www.w3.org/1999/02/22-rdf-syntax-ns#"
   xmlns:svg="http://www.w3.org/2000/svg"
   xmlns="http://www.w3.org/2000/svg"
   width="92.634384mm"
   height="71.496872mm"
   viewBox="0 0 92.634384 71.496872"
   version="1.1"
   id="svg67">
  <defs
     id="defs61" />
  <metadata
     id="metadata64">
    <rdf:RDF>
      <cc:Work
         rdf:about="">
        <dc:format>image/svg+xml</dc:format>
        <dc:type
           rdf:resource="http://purl.org/dc/dcmitype/StillImage" />
        <dc:title></dc:title>
      </cc:Work>
    </rdf:RDF>
  </metadata>
  <g
     id="layer1"
     transform="translate(-54.980428,-109.39442)">
    <g
       id="g997"
       transform="translate(41.963261,53.509825)">
      <path
         style="fill:none;stroke:#ffffff;stroke-width:1.32292;stroke-linecap:round;stroke-linejoin:round;stroke-miterlimit:4;stroke-dasharray:none;stroke-opacity:1"
         d="m 30.214827,126.72001 0.4009,-29.666918 8.68626,29.399638 0.4009,-29.265998"
         id="path859" />
      <path
         id="path861"
         style="fill:none;stroke:#ffffff;stroke-width:1.32292;stroke-linecap:round;stroke-linejoin:round;stroke-miterlimit:4;stroke-dasharray:none;stroke-opacity:1"
         d="m 53.180719,111.52746 c -0.13312,8.31648 -1.74178,15.79493 -4.25731,15.15805 -2.31511,-0.58613 -4.0311,-7.04484 -4.05687,-15.15805 -0.0261,-8.21765 1.2303,-15.642408 3.99005,-14.690328 3.15112,1.0871 4.45361,6.601068 4.32413,14.690328 z" />
      <path
         style="fill:none;stroke:#ffffff;stroke-width:1.32292;stroke-linecap:round;stroke-linejoin:round;stroke-miterlimit:4;stroke-dasharray:none;stroke-opacity:1"
         d="m 58.315317,96.287952 c 0.33719,14.561558 0.79892,28.768658 5.66964,30.427088 7.082663,0.38768 5.712003,-20.55327 6.169793,-29.749418"
         id="path869" />
      <path
         style="fill:none;stroke:#ffffff;stroke-width:1.32292;stroke-linecap:round;stroke-linejoin:round;stroke-miterlimit:4;stroke-dasharray:none;stroke-opacity:1"
         d="m 84.67916,98.417422 c -9.35133,-6.84407 -12.54144,9.572288 -4.34673,12.662208 16.27527,8.48124 -5.91168,27.44018 -5.00343,5.24581"
         id="path871" />
      <g
         id="g839"
         transform="translate(-37.281679,-38.053394)"
         style="stroke:#ffffff;stroke-opacity:1">
        <path
           id="path830"
           d="m 72.949403,95.774924 c -8.136294,5.947436 -5.833851,30.211916 -5.85863,29.907366 1.843341,0.0236 5.314509,0.21431 5.427675,-0.12955 0.0062,-1.08381 0.163529,-6.4351 0.312837,-6.65036 0.958989,-1.39039 5.527058,-1.21099 5.527902,-0.0473 0.111194,0.61412 0.03865,6.61878 0.283484,6.80358 0.644214,0.36401 4.160791,0.0963 6.425593,0.11812 0.525882,0.48305 -0.540043,-20.49878 -3.779761,-27.025302 -0.551415,-1.263069 -5.996696,-4.220853 -8.3391,-2.976564 z"
           style="fill:none;stroke:#ffffff;stroke-width:1.32292;stroke-linecap:round;stroke-linejoin:round;stroke-miterlimit:4;stroke-dasharray:none;stroke-opacity:1" />
        <path
           id="path832"
           d="m 71.655908,101.47277 c -0.917053,0.26527 -1.548937,4.88408 -0.78154,5.56205 1.765299,2.07993 7.956823,1.03707 8.508735,0.32599 0.529367,-2.31047 -2.37e-4,-5.25484 -0.959069,-6.12428 -1.225697,-0.62473 -4.711729,-0.3319 -6.768126,0.23624 z"
           style="fill:none;stroke:#ffffff;stroke-width:1.32292;stroke-linecap:round;stroke-linejoin:round;stroke-miterlimit:4;stroke-dasharray:none;stroke-opacity:1" />
        <path
           id="path834"
           d="m 82.397785,101.78956 c 4.872354,-0.78428 5.338208,11.61419 5.009207,12.31721 -0.246043,1.01809 -1.84038,1.93693 -2.90939,1.95709"
           style="fill:none;stroke:#ffffff;stroke-width:1.32292;stroke-linecap:butt;stroke-linejoin:miter;stroke-miterlimit:4;stroke-dasharray:none;stroke-opacity:1" />
      </g>
      <path
         style="fill:none;stroke:#ffffff;stroke-width:1.32292;stroke-linecap:round;stroke-linejoin:round;stroke-miterlimit:4;stroke-dasharray:none;stroke-opacity:1"
         d="M 13.945895,87.798023 13.678626,58.79928 c 11.045312,-2.353945 17.165496,14.076962 0.131325,14.248763"
         id="path847" />
      <path
         style="fill:none;stroke:#ffffff;stroke-width:1.32292;stroke-linecap:round;stroke-linejoin:round;stroke-miterlimit:4;stroke-dasharray:none;stroke-opacity:1"
         d="m 57.826343,87.604796 -0.26727,-28.998743 c 11.04531,-2.353945 17.16549,14.076962 0.13132,14.248763 6.75122,-0.444449 11.46104,16.643572 10.7233,14.805696"
         id="path855" />
      <path
         style="fill:none;stroke:#ffffff;stroke-width:1.32292;stroke-linecap:round;stroke-linejoin:round;stroke-miterlimit:4;stroke-dasharray:none;stroke-opacity:1"
         d="m 72.690513,87.798023 4.54358,-29.666917 5.87993,29.132377 4.67721,-29.533282 4.00905,29.800552"
         id="path857" />
      <path
         id="path873"
         style="fill:none;stroke:#ffffff;stroke-width:1.32292;stroke-linecap:round;stroke-linejoin:round;stroke-miterlimit:4;stroke-dasharray:none;stroke-opacity:1"
         d="m 98.61022,56.647589 c -2.239475,-0.104685 -1.939165,2.691712 -0.903523,3.500855 0.339474,0.295474 2.827363,1.403615 5.034023,1.093031 1.28983,-0.07197 2.93228,-1.599681 1.95273,-2.806274 -0.45055,-0.554992 -1.22457,-0.862367 -3.6441,-0.919967 -1.00795,-0.58444 -1.812075,-0.838334 -2.43913,-0.867645 z m -0.722953,3.88444 c -1.076669,2.431114 -0.945245,6.736972 -0.927592,12.29545 0.02577,8.113209 -0.620712,14.760958 3.584275,14.969111 2.59173,0.128297 2.14841,-6.929408 2.08411,-14.780492 -0.0389,-4.755875 0.49984,-9.047639 0.15622,-11.738301 -2.44745,0.277784 -3.385781,-0.417822 -4.897013,-0.745768 z" />
      <path
         style="fill:none;stroke:#ffffff;stroke-width:0.8;stroke-linecap:butt;stroke-linejoin:miter;stroke-miterlimit:4;stroke-dasharray:none;stroke-opacity:1"
         d="m 97.590129,63.216484 c 4.999501,4.736722 2.25634,5.232059 -0.54681,4.00156"
         id="path875" />
      <path
         style="fill:none;stroke:#ffffff;stroke-width:0.8;stroke-linecap:butt;stroke-linejoin:miter;stroke-miterlimit:4;stroke-dasharray:none;stroke-opacity:1"
         d="m 96.934326,70.454814 c 6.393084,4.603522 3.282594,5.555313 -0.0221,4.20044"
         id="path877" />
      <path
         style="fill:none;stroke:#ffffff;stroke-width:0.8;stroke-linecap:butt;stroke-linejoin:miter;stroke-miterlimit:4;stroke-dasharray:none;stroke-opacity:1"
         d="m 96.937763,77.902068 c 7.052087,5.12424 2.03403,5.305582 0.13097,4.301388"
         id="path879" />
      <path
         style="fill:none;stroke:#ffffff;stroke-width:0.79375;stroke-linecap:round;stroke-linejoin:round;stroke-miterlimit:4;stroke-dasharray:none;stroke-opacity:1"
         d="m 101.31052,57.151021 0.82726,-0.86955"
         id="path885" />
    </g>
  </g>
</svg>
